# xmcd
#
# Track frame offsets:
#	150
#	1541
#	18915
#	42917
#	65819
#	88689
#	109169
#	131833
#	150679
#	172291
#	195760
#	215071
#	236254
#	259444
#	280728
#	293652
#
# Disc length: 4240 seconds
#
# Revision: 0
# Processed by: cddbd v1.5.1PL2 Copyright (c) Steve Scherf et al.
# Submitted via: dBpowerAMP V4.0
#
DISCID=e0108e10
DTITLE=Raheem DeVaughn - The Love Experience
DYEAR=2004
DGENRE=Soul
TTITLE0=The Voice (Intro)
TTITLE1=The Love Experience
TTITLE2=Guess Who Loves You More
TTITLE3=Who
TTITLE4=Where I Stand
TTITLE5=Breathe
TTITLE6=You
TTITLE7=Sweet Tooth
TTITLE8=Ask Yourself
TTITLE9=Believe
TTITLE10=Is It Possible
TTITLE11=Catch 22
TTITLE12=Until
TTITLE13=Cadillac
TTITLE14=Green Leaves
TTITLE15=Thank You
EXTD=
EXTT0=
EXTT1=
EXTT2=
EXTT3=
EXTT4=
EXTT5=
EXTT6=
EXTT7=
EXTT8=
EXTT9=
EXTT10=
EXTT11=
EXTT12=
EXTT13=
EXTT14=
EXTT15=
PLAYORDER=
